<svg width="19" height="14" viewBox="0 0 19 14" fill="none" xmlns="http://www.w3.org/2000/svg">
<path d="M15.7665 12H18.5001V1H7.50012V4.5M13.2267 12H7.74957M5.24231 12C5.24231 12 4.00027 12 2.00012 12C-3.33786e-05 12 0.000280619 7.5 2.00012 7.5C3.99995 7.5 4.50012 7.5 4.50012 7.5M4.50012 7.5C4.50012 7.5 4.51297 6.14098 5.00012 5.5C5.63637 4.66282 7.50012 4.5 7.50012 4.5M4.50012 7.5H7.50012V4.5" stroke="black"/>
<path d="M8.00012 12.5C8.00012 13.3284 7.32855 14 6.50012 14C5.67169 14 5.00012 13.3284 5.00012 12.5C5.00012 11.6716 5.67169 11 6.50012 11C7.32855 11 8.00012 11.6716 8.00012 12.5ZM6.01187 12.5C6.01187 12.7697 6.23047 12.9883 6.50012 12.9883C6.76978 12.9883 6.98838 12.7697 6.98838 12.5C6.98838 12.2303 6.76978 12.0117 6.50012 12.0117C6.23047 12.0117 6.01187 12.2303 6.01187 12.5Z" fill="#200F29"/>
<path d="M16 12.5C16 13.3284 15.3284 14 14.5 14C13.6716 14 13 13.3284 13 12.5C13 11.6716 13.6716 11 14.5 11C15.3284 11 16 11.6716 16 12.5ZM14.0117 12.5C14.0117 12.7697 14.2303 12.9883 14.5 12.9883C14.7697 12.9883 14.9883 12.7697 14.9883 12.5C14.9883 12.2303 14.7697 12.0117 14.5 12.0117C14.2303 12.0117 14.0117 12.2303 14.0117 12.5Z" fill="#200F29"/>
</svg>
