<svg width="367" height="181" viewBox="0 0 367 181" fill="none" xmlns="http://www.w3.org/2000/svg">
<path d="M53.8617 136.352L100.43 136.226L53.9744 178.245L53.8617 136.352Z" fill="#D42E2E"/>
<rect width="367" height="137.684" rx="27" fill="#D42E2E"/>
<path d="M98.485 75.36C97.9517 75.36 97.4983 75.2 97.125 74.88C96.805 74.5067 96.645 74.0533 96.645 73.52V70.48C96.645 69.9467 96.805 69.52 97.125 69.2C97.4983 68.8267 97.9517 68.64 98.485 68.64H122.485C123.018 68.64 123.445 68.8267 123.765 69.2C124.138 69.52 124.325 69.9467 124.325 70.48V73.52C124.325 74.0533 124.138 74.5067 123.765 74.88C123.445 75.2 123.018 75.36 122.485 75.36H98.485ZM153.075 104C152.542 104 152.088 103.813 151.715 103.44C151.395 103.12 151.235 102.693 151.235 102.16V96.56C147.502 96.24 144.275 95.3867 141.555 94C138.835 92.56 136.755 90.8 135.315 88.72C133.928 86.5867 133.182 84.32 133.075 81.92C133.075 81.4933 133.235 81.12 133.555 80.8C133.928 80.4267 134.355 80.24 134.835 80.24H138.995C139.955 80.24 140.622 80.7733 140.995 81.84C141.528 84.08 142.915 86 145.155 87.6C147.395 89.2 150.568 90 154.675 90C159.102 90 162.435 89.2267 164.675 87.68C166.915 86.08 168.035 83.8667 168.035 81.04C168.035 79.2267 167.475 77.76 166.355 76.64C165.288 75.52 163.688 74.5333 161.555 73.68C159.422 72.8267 156.222 71.76 151.955 70.48C147.795 69.3067 144.488 68.0533 142.035 66.72C139.582 65.3867 137.742 63.7333 136.515 61.76C135.288 59.7867 134.675 57.3067 134.675 54.32C134.675 50.3733 136.142 47.04 139.075 44.32C142.008 41.5467 146.062 39.8933 151.235 39.36V33.84C151.235 33.3067 151.395 32.88 151.715 32.56C152.088 32.1867 152.542 32 153.075 32H156.115C156.648 32 157.075 32.1867 157.395 32.56C157.768 32.88 157.955 33.3067 157.955 33.84V39.44C161.368 39.8667 164.275 40.8267 166.675 42.32C169.128 43.8133 170.968 45.5733 172.195 47.6C173.475 49.6267 174.168 51.6533 174.275 53.68C174.275 54.1067 174.115 54.48 173.795 54.8C173.528 55.12 173.128 55.28 172.595 55.28H168.355C167.235 55.28 166.542 54.7733 166.275 53.76C165.955 51.52 164.702 49.68 162.515 48.24C160.328 46.7467 157.582 46 154.275 46C150.648 46 147.795 46.6933 145.715 48.08C143.635 49.4667 142.595 51.52 142.595 54.24C142.595 56.0533 143.075 57.5467 144.035 58.72C145.048 59.8933 146.568 60.9333 148.595 61.84C150.622 62.6933 153.582 63.68 157.475 64.8C162.008 66.0267 165.582 67.3067 168.195 68.64C170.808 69.92 172.755 71.5467 174.035 73.52C175.315 75.44 175.955 77.8933 175.955 80.88C175.955 85.4133 174.355 89.0667 171.155 91.84C167.955 94.56 163.555 96.16 157.955 96.64V102.16C157.955 102.693 157.768 103.12 157.395 103.44C157.075 103.813 156.648 104 156.115 104H153.075ZM203.168 96.8C198.955 96.8 195.301 96.1333 192.208 94.8C189.168 93.4133 186.848 91.6267 185.248 89.44C183.701 87.2533 182.875 84.96 182.768 82.56C182.768 82.08 182.928 81.7067 183.248 81.44C183.568 81.12 183.968 80.96 184.448 80.96H188.368C189.488 80.96 190.235 81.5467 190.608 82.72C191.301 85.3867 192.795 87.28 195.088 88.4C197.381 89.4667 200.075 90 203.168 90C206.955 90 209.968 89.12 212.208 87.36C214.448 85.5467 215.568 82.96 215.568 79.6C215.568 73.1467 211.648 69.92 203.808 69.92H196.208C195.675 69.92 195.221 69.76 194.848 69.44C194.528 69.0667 194.368 68.6133 194.368 68.08V65.92C194.368 65.1733 194.661 64.4533 195.248 63.76L210.768 46.8H187.168C186.635 46.8 186.181 46.64 185.808 46.32C185.488 45.9467 185.328 45.4933 185.328 44.96V41.92C185.328 41.3867 185.488 40.9333 185.808 40.56C186.181 40.1867 186.635 40 187.168 40H219.088C219.675 40 220.128 40.1867 220.448 40.56C220.821 40.88 221.008 41.3333 221.008 41.92V44.8C221.008 45.44 220.715 46.0533 220.128 46.64L204.688 63.84L205.968 63.92C211.408 64.08 215.701 65.4933 218.848 68.16C221.995 70.8267 223.568 74.72 223.568 79.84C223.568 83.3067 222.688 86.32 220.928 88.88C219.168 91.44 216.741 93.4133 213.648 94.8C210.555 96.1333 207.061 96.8 203.168 96.8ZM250.735 96.8C246.682 96.8 243.188 96.08 240.255 94.64C237.322 93.2 235.055 91.3067 233.455 88.96C231.908 86.6133 231.082 84.1067 230.975 81.44V81.28C230.975 80.8533 231.135 80.5067 231.455 80.24C231.775 79.9733 232.148 79.84 232.575 79.84H236.895C238.015 79.84 238.735 80.4267 239.055 81.6C239.802 84.4267 241.242 86.5333 243.375 87.92C245.508 89.3067 247.962 90 250.735 90C254.308 90 257.268 88.9333 259.615 86.8C262.015 84.6133 263.215 81.6 263.215 77.76C263.215 74.2933 262.015 71.4933 259.615 69.36C257.268 67.2267 254.308 66.16 250.735 66.16C248.815 66.16 247.268 66.4267 246.095 66.96C244.922 67.44 243.748 68.1333 242.575 69.04C241.935 69.52 241.375 69.8933 240.895 70.16C240.468 70.3733 239.988 70.48 239.455 70.48H235.295C234.815 70.48 234.388 70.32 234.015 70C233.642 69.6267 233.482 69.2 233.535 68.72L236.095 42C236.148 41.36 236.335 40.88 236.655 40.56C237.028 40.1867 237.508 40 238.095 40H266.015C266.548 40 266.975 40.1867 267.295 40.56C267.668 40.88 267.855 41.3067 267.855 41.84V44.96C267.855 45.4933 267.668 45.9467 267.295 46.32C266.975 46.64 266.548 46.8 266.015 46.8H242.975L241.455 62.56C244.335 60.7467 247.802 59.84 251.855 59.84C255.375 59.84 258.602 60.56 261.535 62C264.522 63.44 266.868 65.52 268.575 68.24C270.335 70.96 271.215 74.16 271.215 77.84C271.215 81.7867 270.335 85.2 268.575 88.08C266.868 90.9067 264.468 93.0667 261.375 94.56C258.282 96.0533 254.735 96.8 250.735 96.8Z" fill="white"/>
</svg>
